<?xml version="1.0" encoding="UTF-8"?><svg id="Calque_2" xmlns="http://www.w3.org/2000/svg" viewBox="0 0 231.47 231.9"><g id="Calque_2-2"><path d="M213.92,151.04c-16.21,15.89-38.46,24.42-60.7,26.36-20.15,2.36-41.46-3.92-56.95-16.94-.15-.12-.29-.24-.43-.36-1.56,23.25-9.57,45.09-23.05,63.48,13.34,5.36,27.91,8.31,43.17,8.31,60.68,0,110.47-46.62,115.52-105.99-4.23,9.36-10.21,18.01-17.55,25.13Z"/><path d="M66.03,71.03c1.31,1.48,2.57,2.99,3.8,4.53,3.33-9.58,8.93-18.55,17.09-26.21,12.33-11.62,28.14-18.32,44.87-19.37,49.41-3.93,86.14,52.85,52.38,92.65-4.14,5.02-10.07,9.01-16.05,11.2-17.93,7.14-40.98,3.52-52.3-12.97-4.87-5.87-7.7-14.24-6.57-21.9,1.41-10.85,9.51-22.42,20.82-24.17,7.49-1.33,16.1,2.48,19.29,9.53,3.34,6.66,1,14.95-5.09,18.81-1.29,1.01-3.19.74-4.1-.63-.81-1.21-.56-2.82.54-3.74,1.7-1.41,2.84-3.13,3.21-5.02.86-3.93-1.8-8.26-5.57-9.68-7.01-2.71-13.56,2.43-16.51,8.7-6.47,12.69,3.24,25.08,15.59,28.44,7.69,2.02,16.13.82,23.3-2.58,5.01-2.23,8.49-5.88,11.27-10.47,5.83-9.16,6.49-20.82,2.04-30.7-5.39-12.42-17.82-21.76-31.41-22.9-19.25-1.51-40.01,8.86-48.5,26.51-4.91,10.12-5.14,22.23-1.82,32.9,6.8,21.64,27.25,39.34,50.4,39.85,29.05.64,58.64-12.59,70.76-40.23,9.79-21.17,7.09-46.75-4.81-66.55-.88-1.47-1.82-2.91-2.8-4.32C184.59,16.66,152.22,0,115.95,0S48.1,16.25,26.83,41.78c14.87,6.89,28.19,16.76,39.2,29.25Z"/><path d="M48.77,86.24c-9.69-11-21.63-19.49-35.03-25.09C4.98,77.47,0,96.13,0,115.95c0,40.46,20.72,76.07,52.13,96.81,12.43-15.77,19.71-34.94,20.84-55.41,1.46-26.49-7.13-51.74-24.2-71.12Z"/></g></svg>