<?xml version="1.0" encoding="UTF-8"?>
<svg xmlns="http://www.w3.org/2000/svg" viewBox="0 0 153.04 154.57">
  <style>
    .cls-f6-1 { fill: #2e333d; }
    @media (prefers-color-scheme: dark) {
      .cls-f6-1 { fill: #ebecf0; }
    }
  </style>
  <g>
    <path class="cls-f6-1" d="M140.86,89.62c-.5.86-1.13,1.91-1.89,3.09-15.16,24.45-44.95,38.66-73.68,27.72-20.19-7.32-34.03-25.68-34.57-47.22-.23-7.56,1.23-15.3,4.89-22.05,7.92-14.58,24.36-24.43,41.13-23.21,16.67,1.32,31.5,13.24,31.71,30.74.25,12.84-8.3,26.84-21.92,28.24-6.65.75-13.45-1.57-17.92-6.65-3.3-3.68-4.88-9.18-3.28-13.99,1.57-5.86,7.73-10.37,13.82-8.93.84.22,1.64.58,2.34,1.05,2.19,1.44,4.36,5.38,1.09,6.57-.77.28-1.74-.17-2.46-.37-.77-.28-1.22-.32-1.9-.29-2.16-.08-4.49,1.82-4.85,4.02-1.04,3.78,2.45,7.22,6,8.31,3.46,1.15,7.51.57,10.54-1.52,4.9-3.43,7.26-9.83,7.03-15.77-.43-8.88-6.72-14.89-14.99-17.09-10.97-3.01-22.71,2.58-29.38,11.3-8.05,10.06-7.05,25.1-.7,35.82,4.13,7.12,11.23,12.24,18.99,14.82,20.99,7.48,42.64-4.62,52.27-23.72,10.32-19.78,6.43-42.08-9.6-57.42-5.64-5.8-12.69-10.03-20.46-12.32-16.09-5.03-33.9-2.55-48.67,5.81-.9.5-1.8,1.01-2.68,1.56-8.86,5.73-16.57,13.54-22.31,23.24C-.39,74.82,10.68,117.99,44.13,137.79c33.45,19.8,76.62,8.73,96.42-24.72.36-.61.71-1.23,1.05-1.85,3.87-7.48,6.38-15.06,6.03-20.91-.29-4.96-4.71-4.31-6.8-.67h0l.03-.02Z"/>
  </g>
</svg>
